<svg version="1.1" id="Layer_1" xmlns="http://www.w3.org/2000/svg" xmlns:xlink="http://www.w3.org/1999/xlink" x="0px" y="0px"
	 width="100%" viewBox="0 0 1024 1024" enable-background="new 0 0 1024 1024" xml:space="preserve">
<path fill="#000000" opacity="1.000000" stroke="none" 
	d="
M389.999939,921.285522 
	C347.705963,922.075195 307.164337,915.570862 268.456604,899.525757 
	C202.286346,872.096741 151.994949,826.857483 117.708694,763.899109 
	C99.396957,730.274109 87.862076,694.366699 84.169502,656.366882 
	C76.034805,572.653381 98.045006,497.687622 151.997482,432.710052 
	C183.917831,394.266876 223.360596,365.852325 269.710205,347.280579 
	C296.409698,336.582428 324.128876,329.770691 352.932098,327.538788 
	C368.731934,326.314514 384.531219,326.036926 400.354828,326.041260 
	C470.350281,326.060364 540.345825,326.028015 610.340942,326.193024 
	C614.678650,326.203217 614.784851,324.197968 614.776794,321.049286 
	C614.722412,299.884094 614.746826,278.718689 614.747375,257.553375 
	C614.748474,213.389481 614.748047,169.225586 614.753845,125.061699 
	C614.755920,109.304398 623.021484,100.826569 638.668396,100.822365 
	C725.662903,100.799034 812.657410,100.809029 899.651917,100.860603 
	C914.843994,100.869606 923.298157,109.576820 923.298218,124.944206 
	C923.298889,382.428009 923.293762,639.911804 923.286377,897.395630 
	C923.285950,912.866882 914.712280,921.294922 898.966309,921.294922 
	C729.477539,921.294739 559.988770,921.289185 389.999939,921.285522 
M543.500000,368.290863 
	C488.176605,368.294922 432.853241,368.314575 377.529846,368.292847 
	C362.325317,368.286865 347.216827,369.777985 332.368958,372.717010 
	C272.917114,384.484894 222.788956,412.839111 184.175827,459.734222 
	C131.312592,523.935913 113.703613,597.533875 130.577484,678.739319 
	C142.400024,735.635315 171.636932,782.852112 216.359360,819.962769 
	C264.622894,860.011963 320.429932,879.166138 383.223663,879.070312 
	C546.362549,878.821411 709.502075,878.977783 872.641296,878.973633 
	C880.922058,878.973450 880.926208,878.978699 880.927002,870.887451 
	C880.937439,759.239563 880.953796,647.591614 880.954346,535.943726 
	C880.955017,407.298676 880.934082,278.653625 880.968750,150.008606 
	C880.969788,146.005386 881.054626,143.084625 875.379456,143.098328 
	C804.391724,143.269852 733.403564,143.234070 662.415527,143.158279 
	C658.642029,143.154251 656.718140,144.207108 657.095093,148.233215 
	C657.249695,149.884506 657.103333,151.563446 657.103455,153.229797 
	C657.107605,217.052399 657.132629,280.875000 657.103333,344.697601 
	C657.096497,359.692902 648.438965,368.285248 633.485046,368.294403 
	C603.823364,368.312622 574.161682,368.294464 543.500000,368.290863 
z"/>
<path fill="#000000" opacity="1.000000" stroke="none" 
	d="
M657.073364,647.000000 
	C657.082764,675.990479 657.113892,704.480896 657.092163,732.971375 
	C657.079895,749.102356 648.861755,757.320007 632.809937,757.325684 
	C589.824341,757.340759 546.838623,757.399963 503.853149,757.332825 
	C437.790009,757.229614 382.675079,711.131897 370.918762,646.254456 
	C359.185455,581.503845 399.433655,515.874573 462.615295,496.260803 
	C476.301544,492.012115 490.212280,490.016083 504.412018,489.970886 
	C547.063965,489.835052 589.716614,489.893616 632.368958,489.929352 
	C648.618225,489.942963 657.095459,498.408203 657.099548,514.545227 
	C657.110657,558.530151 657.084412,602.515076 657.073364,647.000000 
M434.229248,562.727112 
	C412.260010,588.787659 405.740875,618.387634 415.366180,650.964478 
	C426.207306,687.656311 459.234436,713.670959 497.400543,714.698242 
	C534.353821,715.692993 571.352905,714.922241 608.330261,715.171021 
	C613.411987,715.205200 614.858032,713.660461 614.844299,708.638794 
	C614.689392,652.003418 614.747925,595.367493 614.735901,538.731689 
	C614.734497,532.269226 614.696899,532.251831 608.002930,532.250977 
	C573.355164,532.246399 538.707153,532.317444 504.059631,532.232239 
	C476.554596,532.164551 453.466705,542.131775 434.229248,562.727112 
z"/>
</svg>