<svg version="1.1" id="Layer_1" xmlns="http://www.w3.org/2000/svg" xmlns:xlink="http://www.w3.org/1999/xlink" x="0px" y="0px"
	 width="100%" viewBox="0 0 768 768" enable-background="new 0 0 768 768" xml:space="preserve">
<path fill="#000000" opacity="1.000000" stroke="none" 
	d="
M584.810791,328.063049 
	C631.068420,327.014313 668.760071,347.908356 704.845581,372.651855 
	C716.606201,380.716034 722.974792,392.931213 727.616455,406.424774 
	C738.587097,438.316833 736.550659,471.061890 735.599426,503.857147 
	C735.237732,516.327271 733.227356,528.325867 729.256714,540.081726 
	C726.835327,547.250916 722.606934,553.016724 716.556885,557.583130 
	C701.860413,568.675781 686.037720,577.664368 667.502686,579.712097 
	C652.452026,581.374817 637.213623,580.728088 622.082397,579.746094 
	C606.174316,578.713623 591.181519,574.068237 576.206787,568.639648 
	C554.100464,560.625549 530.773010,557.113525 507.796265,552.414856 
	C501.245117,551.075195 494.873993,549.256470 488.750214,546.540222 
	C479.316345,542.355774 469.267456,540.678894 459.087982,540.440369 
	C433.272552,539.835388 407.338806,538.938477 381.690674,541.688354 
	C361.944305,543.805481 342.323547,547.827820 323.149017,553.761353 
	C285.629181,565.371887 248.429428,578.089966 210.277771,587.580933 
	C190.953537,592.388123 171.249222,591.522095 151.641144,590.378662 
	C128.010529,589.000854 107.393761,579.407593 89.628143,564.330505 
	C71.704315,549.119080 60.112301,530.213257 60.065563,505.621490 
	C60.032005,487.964142 59.834030,470.277283 62.743294,452.833557 
	C65.163925,438.319611 73.155807,425.931488 79.710403,413.033508 
	C93.993248,384.928070 118.444794,370.132874 147.628738,362.460602 
	C161.814545,358.731262 176.758728,359.819702 191.410248,360.177643 
	C204.558380,360.498901 217.695511,361.246460 230.841827,361.672211 
	C241.083206,362.003876 251.182739,363.386047 260.599976,367.411377 
	C295.538391,382.345459 332.006165,384.529114 369.391571,382.368347 
	C393.606567,380.968842 417.514008,378.703461 440.795929,371.742554 
	C459.139526,366.258118 477.287567,360.422577 494.309875,351.224091 
	C511.384796,341.997162 530.604553,338.200653 548.787415,331.751434 
	C560.414124,327.627594 572.334717,327.824280 584.810791,328.063049 
M170.702133,500.397247 
	C159.348190,502.091339 148.385941,501.251038 138.546417,494.722168 
	C135.776276,492.884125 134.146133,493.719208 132.090958,495.651855 
	C120.529282,506.524292 115.594116,520.114624 114.269173,535.697510 
	C112.299408,558.864136 124.403709,570.609009 143.022141,576.499084 
	C144.918427,577.099060 147.378601,577.397888 148.489273,578.737976 
	C152.807892,583.949097 158.536987,582.966125 164.091309,582.985901 
	C169.590927,583.005554 175.091278,582.902283 180.590439,582.951660 
	C189.602631,583.032532 198.578857,582.807007 207.403793,580.678894 
	C209.880356,580.081665 211.707947,579.267761 213.082413,576.573914 
	C214.822723,573.163208 216.722427,569.940308 217.457321,566.114197 
	C217.810287,564.276428 218.688873,562.567810 220.977341,562.488464 
	C223.227402,562.410339 224.115997,564.077209 224.905777,565.773804 
	C225.326630,566.677917 225.618942,567.640869 226.002075,568.563599 
	C228.732620,575.140198 228.779510,575.279785 235.468658,573.177673 
	C253.420441,567.536255 271.234406,561.428772 289.307190,556.213745 
	C296.086212,554.257629 299.598083,550.905334 299.865082,543.988953 
	C299.956421,541.623413 300.863586,539.682983 303.450836,539.266602 
	C306.198029,538.824585 307.273834,540.776367 308.041107,542.920593 
	C310.681885,550.300842 309.516693,550.627563 318.692474,547.693604 
	C341.300262,540.464722 364.580261,536.465271 388.104919,534.199402 
	C394.250732,533.607422 398.255981,532.724121 399.523590,526.176453 
	C400.110229,523.145996 402.665039,521.828247 405.551331,522.007324 
	C408.322754,522.179199 408.468842,524.838135 409.053101,526.861755 
	C409.326141,527.807495 409.278381,528.843140 409.405090,529.834290 
	C409.767975,532.673157 411.119293,533.387329 414.154785,533.272705 
	C434.125031,532.518738 454.112762,531.772461 474.009094,534.655518 
	C483.446198,536.022949 483.495300,535.991089 486.801758,526.817932 
	C487.665009,524.422913 489.228729,523.298401 491.663666,523.367493 
	C494.485107,523.447449 495.896637,525.188660 496.140320,527.807068 
	C496.340210,529.955200 496.249969,532.134277 496.223846,534.298889 
	C496.131042,541.989319 496.134247,541.934021 503.790161,543.832642 
	C525.279724,549.161804 547.175903,552.678345 568.537964,558.611694 
	C580.800415,562.017700 580.901855,561.716553 585.358032,549.650818 
	C585.983521,547.957275 586.825073,546.631775 588.775513,546.501892 
	C591.068176,546.349121 591.899841,547.914795 592.585510,549.753296 
	C593.673096,552.669861 593.309875,555.683411 593.303284,558.662598 
	C593.284912,566.962524 593.291992,566.796509 601.201477,568.815735 
	C620.018250,573.619324 639.215759,572.624573 658.349976,573.087158 
	C666.426880,573.282532 672.962891,569.597717 678.708923,565.343872 
	C687.916382,558.527405 693.407593,548.687134 695.675049,537.302551 
	C697.744995,526.909851 697.164551,516.391602 696.759399,505.919525 
	C695.921509,484.260742 683.241577,469.382812 667.694580,456.304626 
	C665.303467,454.293243 662.576294,454.180084 659.325195,455.493652 
	C639.806274,463.380035 619.990967,464.702942 599.965271,457.262329 
	C599.046509,456.920959 598.126343,456.381744 596.913513,457.205200 
	C593.962952,462.957642 593.363159,469.372192 593.348328,475.901093 
	C593.309326,493.066925 593.281006,510.232788 593.238953,527.398621 
	C593.228943,531.477539 592.769836,535.421387 589.509033,538.398132 
	C587.950806,539.820557 586.254700,540.878723 584.144165,539.531860 
	C582.262451,538.331055 581.374512,536.616333 582.204285,534.405945 
	C582.997986,532.291870 582.767395,530.133850 582.730774,527.978149 
	C582.566528,518.302368 583.786438,508.705566 584.322144,499.070038 
	C584.922852,488.266418 585.295776,477.448578 585.640991,466.632904 
	C585.807129,461.426392 580.876221,460.726959 577.814758,458.553345 
	C575.195984,456.693970 574.072266,459.774567 572.622070,461.044006 
	C566.945129,466.013306 560.748230,470.137909 554.046448,473.604492 
	C543.109985,479.261475 532.813538,479.884155 522.228210,472.143585 
	C515.391602,467.144196 508.656006,462.152985 503.145874,455.574432 
	C500.844482,457.806458 500.945282,461.087891 498.375549,461.987335 
	C494.538727,463.330200 494.327911,466.141754 494.289368,469.535645 
	C494.137817,482.877472 494.949615,496.185333 495.395538,509.506561 
	C495.542450,513.896057 493.342987,516.479614 490.303925,515.655212 
	C487.230377,514.821472 486.396240,512.143250 485.978821,509.486267 
	C485.177490,504.385040 484.879730,499.237640 484.765381,494.059326 
	C484.536926,483.709869 485.766754,473.432556 485.982178,463.109833 
	C486.095551,457.677490 485.197571,457.107880 480.374817,459.073059 
	C475.598511,461.019257 470.751343,462.805664 465.877777,464.496521 
	C447.418854,470.900696 429.081940,471.688324 410.948547,463.201569 
	C407.992798,461.818237 404.759644,464.276855 404.423370,468.223267 
	C404.255951,470.187988 404.560730,472.211090 404.802124,474.189453 
	C406.232269,485.909393 407.824524,497.611206 409.089691,509.348511 
	C409.442810,512.624634 408.467712,516.263977 404.478760,516.443604 
	C400.303497,516.631592 399.913849,513.087341 399.635651,509.708588 
	C398.516235,496.113403 396.513306,482.593658 396.548676,468.898529 
	C396.557281,465.575745 394.658722,463.923248 391.226379,465.925690 
	C382.654297,470.926758 373.183044,473.608978 363.845428,476.671936 
	C346.818481,482.257141 329.860382,482.784393 313.001221,476.168427 
	C307.329956,473.942902 306.489166,474.232849 305.929749,480.480347 
	C304.664124,494.615204 305.563354,508.791412 305.324738,522.947327 
	C305.273682,525.974854 305.101044,529.048096 301.236511,529.086853 
	C297.498047,529.124451 296.916687,526.046570 296.711426,523.074585 
	C295.768219,509.420258 296.189362,495.756958 297.331421,482.159119 
	C297.677643,478.036926 295.193451,477.690216 293.021332,476.075287 
	C290.433502,474.151276 289.174255,475.747681 287.632812,477.357758 
	C280.442841,484.867950 272.345337,491.411957 263.459351,496.630005 
	C246.775848,506.426910 237.352707,503.498779 226.858871,491.312103 
	C225.766861,490.043884 225.110062,488.081177 222.598785,487.927856 
	C221.832108,503.584381 221.055603,518.998352 220.342773,534.415222 
	C220.217606,537.122192 220.567337,540.305908 216.824326,540.427368 
	C212.912430,540.554260 211.960480,537.604614 212.005432,534.253296 
	C212.021057,533.088074 211.897217,531.870667 212.184189,530.767273 
	C215.159912,519.325867 214.129425,507.603546 214.593597,495.998108 
	C214.853271,489.505463 209.965729,486.639191 204.166046,489.425781 
	C193.763489,494.423920 182.991852,498.331543 170.702133,500.397247 
M410.205719,452.397339 
	C411.186371,455.281403 413.625427,456.327881 416.228790,457.130371 
	C441.391907,464.886780 464.255768,458.645813 485.739624,445.269379 
	C491.433594,441.724121 491.417236,439.612457 489.250824,433.425995 
	C486.052399,424.292633 484.142487,414.861725 482.578857,405.296387 
	C480.861847,394.793121 483.484741,383.719269 477.445404,373.677979 
	C474.917847,369.475555 473.486969,368.074280 468.540131,369.844086 
	C449.716827,376.578552 430.547363,382.207794 410.733978,385.303009 
	C407.857330,385.752441 406.360901,386.919678 406.041107,390.013245 
	C405.752228,392.807831 404.761322,395.576630 402.861664,397.780212 
	C401.271881,399.624329 399.916199,402.213196 397.064728,402.001282 
	C394.048492,401.777100 393.412292,398.998688 392.515076,396.660248 
	C392.038269,395.417511 391.203674,394.268036 390.947632,392.992706 
	C390.115601,388.848358 387.587799,388.023987 383.693665,388.298035 
	C362.757202,389.771484 341.795532,390.803345 320.818878,389.241272 
	C316.386414,388.911194 313.409912,389.693878 311.186432,394.126099 
	C308.612457,399.256897 305.274261,398.868195 302.658844,393.699921 
	C302.134796,392.664307 301.489258,391.575531 301.382111,390.464691 
	C301.042542,386.945496 298.735687,385.976257 295.736237,385.283112 
	C286.649323,383.183136 277.425964,381.232056 268.894104,377.516479 
	C248.623535,368.688812 227.165771,368.232849 205.691040,367.425018 
	C202.499207,367.304932 201.066956,368.528473 201.191833,371.766632 
	C201.377411,376.579346 200.893784,381.408722 202.030579,386.192291 
	C202.524597,388.271118 201.861511,390.325592 199.532257,391.008026 
	C197.320786,391.655914 195.503784,390.604828 194.584076,388.608490 
	C191.959183,382.910767 188.418671,377.522034 187.808563,371.084808 
	C187.507843,367.912048 185.798965,367.271912 183.083572,367.473083 
	C178.934296,367.780457 174.777237,368.136414 170.621841,368.158203 
	C167.376266,368.175262 164.953583,369.312256 162.742249,371.680939 
	C157.626648,377.160614 152.282196,382.425873 147.074142,387.820160 
	C130.324539,405.168701 119.400566,424.603607 119.924210,449.993835 
	C120.320129,469.191132 140.522827,492.430908 162.400528,491.842194 
	C178.650375,491.404846 192.709137,484.855835 206.246277,476.701721 
	C209.089432,474.989136 208.887573,472.589417 207.980988,469.729614 
	C204.664230,459.267059 200.454620,449.084656 198.368423,438.231140 
	C196.420486,428.096954 194.569962,417.956818 193.938126,407.644409 
	C193.784882,405.143188 193.913956,402.195526 197.163742,401.760132 
	C200.530457,401.309052 201.087265,404.036743 201.489975,406.653656 
	C202.399872,412.566406 203.493622,418.452759 204.307587,424.378021 
	C207.142792,445.016571 213.190704,464.069183 227.771423,479.957153 
	C243.107559,496.668304 250.259018,495.342773 263.527618,485.658508 
	C263.795959,485.462708 264.090576,485.302307 264.376465,485.131256 
	C283.728516,473.552612 293.536255,455.788025 297.744904,434.220062 
	C299.494385,425.254517 301.849335,416.410583 303.261780,407.365387 
	C303.700897,404.553162 305.155609,402.275879 308.578125,402.568298 
	C311.776550,402.841614 312.380524,405.430237 312.972260,407.874603 
	C313.200226,408.816254 313.152374,409.877167 313.003174,410.848846 
	C312.271393,415.614594 311.378296,420.356567 310.699463,425.129272 
	C309.278717,435.117889 304.272369,444.295166 304.981232,454.880859 
	C305.363556,460.590149 307.743622,464.557617 312.176910,466.297943 
	C323.030365,470.558655 334.273376,473.847595 346.232635,472.068146 
	C361.974030,469.725952 376.368256,463.705872 389.778961,455.379608 
	C394.911743,452.192841 398.105225,447.333008 397.831909,440.845642 
	C397.383270,430.197357 398.183960,419.521576 397.132507,408.886200 
	C396.931946,406.857239 397.353149,405.121918 399.702667,404.794891 
	C401.847382,404.496368 403.186493,405.669556 403.764587,407.672394 
	C404.039246,408.623993 404.135742,409.629120 404.287079,410.613983 
	C405.656311,419.525299 405.960510,428.529755 405.872864,437.499939 
	C405.820923,442.817017 406.060608,447.693329 410.205719,452.397339 
M593.564331,359.756500 
	C594.083313,362.267853 593.930359,364.736755 590.949341,365.282043 
	C587.740662,365.868988 586.192810,363.374969 586.158813,360.788635 
	C586.099792,356.294678 583.747314,353.014679 581.652771,349.422119 
	C579.904968,346.424469 578.241516,343.187408 577.497620,339.843506 
	C576.591370,335.769623 574.405823,335.306641 570.777039,335.180389 
	C560.993835,334.840027 552.111694,338.262878 543.115173,341.151855 
	C527.434570,346.187286 511.409515,350.252930 496.447296,357.370331 
	C494.274017,358.404205 492.534302,359.553955 491.857880,362.164093 
	C489.826447,370.002655 484.460724,377.406158 489.019409,386.030579 
	C489.165161,386.306366 489.116272,386.684753 489.159180,387.015198 
	C490.229767,395.259155 491.416840,403.489960 492.349548,411.749512 
	C495.248718,437.423615 508.994598,455.375854 531.532227,467.119995 
	C534.839722,468.843475 538.295044,470.160614 542.065491,468.805878 
	C558.792786,462.795441 572.424316,452.771118 578.589172,435.699219 
	C584.460632,419.439819 588.674988,402.577606 588.026062,384.949921 
	C587.903809,381.629089 587.978760,378.271851 588.333191,374.971191 
	C588.666565,371.866302 589.770325,368.732849 593.626343,368.905121 
	C597.458130,369.076324 598.242554,372.120544 598.338440,375.375092 
	C598.564819,383.059418 597.705017,390.672150 596.751892,398.269684 
	C595.305908,409.795807 591.678650,421.019409 592.258850,432.837158 
	C592.572205,439.222046 600.147339,449.834869 606.311340,451.658813 
	C612.936279,453.619049 619.777710,453.987274 626.612244,453.612518 
	C635.083801,453.148010 643.522278,452.388672 651.653870,449.548950 
	C656.503601,447.855316 659.669250,443.761810 664.266907,441.605255 
	C675.851929,436.171204 683.666321,427.385406 686.775208,414.591309 
	C688.609192,407.043671 689.613464,399.435638 688.625671,391.822998 
	C686.874939,378.331024 680.080322,366.996857 669.334961,359.270416 
	C660.934326,353.229858 651.008667,349.108765 641.201050,345.300903 
	C629.385498,340.713470 617.517761,336.322815 604.608765,336.009583 
	C602.041016,335.947296 599.484253,335.768280 598.328735,338.771881 
	C595.819885,345.292847 594.047180,351.997101 593.564331,359.756500 
M69.486595,452.062653 
	C66.418610,471.246338 66.856316,490.572235 67.452927,509.871948 
	C67.641457,515.970581 68.335419,522.185425 70.899460,527.923279 
	C79.625168,547.449646 94.229965,561.253113 112.957939,571.017761 
	C113.626144,571.366150 114.477974,571.810791 115.227577,570.440125 
	C114.202385,568.937561 113.038811,567.342834 111.990982,565.675415 
	C108.962013,560.855225 106.201500,555.871094 105.721024,550.071655 
	C103.842476,527.397156 108.635887,506.678558 124.087975,489.247620 
	C126.508003,486.517670 126.640213,484.585876 124.095718,481.649750 
	C117.681053,474.247681 112.682396,465.853882 111.812660,455.892273 
	C109.732964,432.072021 116.046524,410.756744 131.689728,392.381439 
	C138.461212,384.427338 145.679474,376.884460 153.180161,369.063171 
	C139.944962,369.704529 113.357048,382.318237 102.367004,393.499573 
	C86.350693,409.794586 77.562935,430.289032 69.486595,452.062653 
M706.260437,515.531677 
	C706.907837,532.300903 703.481323,548.122498 694.292419,563.327209 
	C712.813721,555.441895 723.781494,542.951233 726.785889,523.653320 
	C728.487122,512.725525 728.594482,501.771301 729.040894,490.803619 
	C729.805847,472.011200 731.362305,453.139648 727.602600,434.528290 
	C724.378235,418.567108 721.312256,402.418610 711.200562,388.865997 
	C705.878967,381.733429 698.600464,377.168976 690.768127,372.926422 
	C698.841675,385.884064 698.502014,399.433990 696.175110,413.684357 
	C693.703552,428.821289 684.690430,439.024078 672.822449,447.661591 
	C692.586182,466.368958 706.980591,486.741455 706.260437,515.531677 
z"/>
<path fill="#000000" opacity="1.000000" stroke="none" 
	d="
M304.596191,167.037170 
	C319.354401,169.169373 333.242096,172.515579 345.161133,181.238251 
	C360.562744,192.509567 368.722778,207.757507 366.819702,226.843521 
	C365.266205,242.423248 359.814331,257.372528 350.141998,269.707733 
	C333.732880,290.634491 314.855743,309.320984 290.606293,321.168121 
	C259.051453,336.584320 228.062561,335.268127 198.746201,315.159607 
	C179.426620,301.908020 170.813766,276.132355 177.522964,253.621872 
	C179.091690,248.358490 180.958893,243.180038 182.406570,237.885361 
	C186.730301,222.071884 196.406830,210.035721 209.074432,200.225433 
	C231.197327,183.092606 256.000580,171.856583 283.684387,167.305252 
	C290.449158,166.193069 297.312225,166.645660 304.596191,167.037170 
M282.464386,275.058533 
	C266.305420,284.334534 249.524216,288.401459 231.380264,281.199188 
	C218.503250,276.087646 211.980362,263.980713 214.162552,250.364807 
	C216.197495,237.667679 222.676147,227.680725 232.098099,219.503540 
	C250.580063,203.463211 267.684509,201.364853 287.498444,210.150864 
	C299.605713,215.519562 303.581360,225.503387 299.722168,238.094604 
	C295.260254,252.652252 284.468933,261.117279 271.414673,267.205444 
	C265.087738,270.156189 258.434784,269.612946 251.907715,267.328705 
	C243.825180,264.500092 241.032471,258.283813 244.251175,250.342529 
	C246.751266,244.174225 251.203842,240.301834 257.650604,238.720963 
	C262.528717,237.524780 267.520050,237.138870 272.508514,237.080704 
	C275.931976,237.040787 280.775635,236.771774 280.723938,241.287827 
	C280.674561,245.603989 275.854828,244.701630 272.677399,244.934952 
	C267.554657,245.311142 262.311035,244.274475 257.314484,246.054367 
	C253.017670,247.585022 248.785965,252.845367 249.648361,256.173035 
	C250.890244,260.965088 255.324448,261.130920 259.267181,261.744568 
	C259.431091,261.770081 259.602966,261.748657 259.765228,261.779907 
	C273.352295,264.398102 294.907806,244.896988 294.919922,229.042160 
	C294.922119,226.160568 293.887787,223.886292 292.060944,221.823700 
	C284.943115,213.787216 275.254333,211.514282 265.369812,211.588181 
	C244.984909,211.740585 222.928268,232.331482 220.422302,252.559845 
	C219.120117,263.071228 223.264725,270.365143 233.251831,274.889832 
	C241.957809,278.834076 251.117996,278.989502 260.193726,277.004822 
	C277.280823,273.268219 290.870209,263.297607 302.490387,250.853714 
	C314.460754,238.034790 317.680054,222.501846 313.684387,205.461212 
	C313.026276,202.654556 311.317657,200.679413 308.754944,199.536484 
	C298.661102,195.034744 288.076630,192.311783 277.168610,194.987823 
	C253.228714,200.860931 232.676407,212.819733 217.085068,232.103043 
	C208.673462,242.506485 204.011063,254.778122 206.898315,268.446716 
	C211.411407,289.812164 243.379379,304.751404 262.953094,294.997681 
	C275.166260,288.911774 289.452423,276.130219 293.732086,267.543610 
	C290.267365,269.871277 286.681519,272.280273 282.464386,275.058533 
M295.061218,292.637634 
	C280.235107,302.749603 262.883759,304.757935 245.758224,307.490845 
	C269.694550,315.402252 308.954620,305.122650 322.138763,288.116425 
	C339.763062,265.382874 345.989044,226.597504 335.781250,212.760376 
	C337.001953,246.617294 324.622284,273.613129 295.061218,292.637634 
M358.485779,209.176651 
	C351.438141,187.629181 326.892761,175.024231 305.616455,174.662155 
	C322.501648,184.416534 337.815094,196.055023 344.505127,216.185211 
	C351.160461,236.211136 344.582336,254.775162 338.922089,274.031372 
	C345.949127,265.894226 350.699799,256.933655 354.412231,247.488144 
	C359.152039,235.428772 362.157288,223.026352 358.485779,209.176651 
M323.040741,251.511322 
	C328.257843,236.765198 331.902039,221.870239 327.712402,206.140457 
	C325.664703,198.452423 321.399109,192.911865 312.809601,190.023102 
	C314.020874,193.406555 315.933105,195.228439 317.729279,197.059250 
	C325.573853,205.055115 327.817535,214.331528 324.452332,225.024200 
	C319.142212,241.896790 310.147614,256.803131 299.842529,270.977844 
	C294.197662,278.742401 287.663818,285.749481 280.363312,292.042542 
	C299.769135,284.350616 313.745605,270.923401 323.040741,251.511322 
M239.252075,324.292633 
	C257.118317,326.436493 273.753876,322.527985 289.516479,314.172638 
	C266.743561,320.634033 245.233490,318.018097 224.645325,306.201904 
	C219.395493,303.188873 213.276093,301.690948 206.704453,299.170166 
	C209.060547,304.835022 214.936432,308.554749 209.635239,314.367371 
	C219.017365,319.594269 228.449936,322.585938 239.252075,324.292633 
M230.701050,197.189835 
	C223.423935,203.604828 216.283173,210.126038 213.047348,219.738510 
	C221.894958,211.401657 230.547150,202.925034 240.661209,196.132431 
	C250.927414,189.237656 262.138885,184.380463 275.219025,180.418762 
	C270.024200,180.034103 266.305908,180.193298 262.540955,180.899719 
	C250.549973,183.149643 240.740524,189.610550 230.701050,197.189835 
M202.627426,218.133148 
	C191.521652,231.121643 184.143829,245.398361 186.587234,262.834869 
	C195.876831,247.076706 201.199142,229.502655 207.830643,211.910736 
	C206.055511,214.059113 204.583344,215.840820 202.627426,218.133148 
M195.143982,281.238983 
	C198.329651,286.677338 203.454193,289.546234 208.961517,292.056641 
	C202.704132,281.562744 198.197556,270.623657 196.196365,258.642975 
	C192.557571,265.922668 190.461548,273.098022 195.143982,281.238983 
M181.495987,272.713257 
	C183.445496,288.462677 190.186142,301.282959 203.867630,309.865784 
	C196.279510,297.392120 188.857101,284.836151 182.142838,271.867920 
	C182.140198,271.862823 181.700150,272.084137 181.495987,272.713257 
M265.849213,190.342529 
	C263.306366,191.388809 260.563202,192.020493 258.416718,194.022964 
	C272.016602,188.659348 285.795715,185.096268 300.458344,188.769318 
	C288.989746,183.757675 277.783325,186.877335 265.849213,190.342529 
z"/>
<path fill="#000000" opacity="1.000000" stroke="none" 
	d="
M462.747223,303.196960 
	C455.283203,303.048279 448.787750,303.905029 442.122192,307.084991 
	C431.706787,312.053925 420.413422,313.106354 409.052795,309.337708 
	C399.870483,306.291656 392.380707,300.976166 389.293427,291.685699 
	C385.479095,280.207214 378.634735,269.659851 377.548370,257.393219 
	C375.878418,238.537231 377.801575,220.428802 388.693542,203.889252 
	C398.345581,189.232574 409.844818,177.047379 425.803253,169.287018 
	C439.699371,162.529526 453.913025,160.471741 468.903534,164.957291 
	C475.026611,166.789459 481.473145,165.483063 487.734497,166.683273 
	C507.529907,170.477768 521.993103,180.992874 529.377441,199.949600 
	C532.994690,209.235382 533.364563,219.197372 531.361145,228.984024 
	C528.038025,245.217575 523.627136,261.155182 512.832581,274.283508 
	C499.917755,289.990540 483.948395,300.748322 462.747223,303.196960 
M398.886169,244.277237 
	C396.352539,248.855789 397.823456,252.517059 401.449890,255.737839 
	C404.683990,258.610229 407.716675,261.730011 411.102081,264.406952 
	C417.243378,269.262970 428.996124,271.280396 436.648315,269.157623 
	C433.555756,268.349640 430.280334,267.707672 427.154327,266.631683 
	C421.048676,264.530029 417.579834,259.665588 417.968506,253.290054 
	C418.783691,239.918823 424.973969,229.854904 437.206177,223.968323 
	C443.968170,220.714203 458.976654,223.601761 464.636169,228.946075 
	C465.962952,230.198975 466.700409,231.666382 465.648651,233.375137 
	C464.623322,235.040970 463.035370,235.310120 461.285980,234.547318 
	C458.695251,233.417679 456.182007,232.077148 453.526001,231.136185 
	C441.755402,226.966095 432.605133,230.964508 427.360535,242.383469 
	C425.880005,245.607010 425.221039,249.018600 424.679352,252.477448 
	C424.003815,256.790527 425.772095,259.625122 429.935303,260.799164 
	C435.840820,262.464630 441.864471,262.876038 447.557739,260.313446 
	C460.359924,254.551041 470.802917,246.132996 476.887329,233.057434 
	C481.666138,222.787766 479.574005,216.426727 469.112244,211.696289 
	C458.680084,206.979218 447.589661,205.710464 436.392395,207.996140 
	C416.660278,212.024017 406.271973,226.155838 398.886169,244.277237 
M487.602783,238.898178 
	C484.273773,247.310654 478.835938,254.117569 471.899994,259.851410 
	C461.009644,268.854401 449.047852,275.456848 434.607208,276.186310 
	C420.409058,276.903473 407.361389,273.806122 396.227203,262.600555 
	C398.904388,274.541992 404.932861,282.602631 415.517731,286.127441 
	C426.885345,289.912933 438.586304,289.910095 449.691864,284.901154 
	C473.910675,273.977692 489.487335,255.265991 497.220520,230.082458 
	C502.930176,211.488541 492.310791,197.239441 479.318665,191.753708 
	C451.756409,180.115891 424.955688,188.349960 405.355103,208.409912 
	C400.699432,213.174667 397.618469,220.141113 397.331390,223.598389 
	C410.881256,210.877502 426.414490,199.995407 444.820862,193.765488 
	C457.415955,189.502518 469.461639,191.437607 480.624390,198.704468 
	C490.365997,205.046188 494.100067,213.416580 491.803284,224.785583 
	C490.884888,229.331665 489.241974,233.731369 487.602783,238.898178 
M494.237640,266.738342 
	C507.668610,252.569077 516.924194,236.213577 522.102722,217.235672 
	C525.072144,206.353363 522.876160,197.657089 515.596863,189.654022 
	C509.531464,182.985550 501.998718,178.892181 493.360382,176.030045 
	C493.165466,178.167709 494.288300,178.840866 495.096039,179.566742 
	C505.010498,188.476166 508.696838,199.985748 508.179016,212.816757 
	C507.453796,230.786621 502.192596,247.499023 492.432465,262.679901 
	C489.780121,266.805359 486.813416,270.728699 483.218475,275.843933 
	C488.157074,273.247070 490.886444,270.169128 494.237640,266.738342 
M466.310547,172.243179 
	C454.254364,172.264633 453.536530,172.386078 448.596344,175.663025 
	C469.851135,176.463577 487.563446,183.253113 500.009583,200.668427 
	C495.457916,182.604172 482.332458,173.350906 466.310547,172.243179 
M503.424225,266.892944 
	C495.000275,277.013367 484.818878,285.205994 473.326233,293.448242 
	C495.139557,289.880066 519.494080,261.198853 522.459473,236.084702 
	C517.696106,247.650482 511.376770,257.367493 503.424225,266.892944 
M485.800354,217.377380 
	C485.779053,215.359268 485.449799,213.450958 484.433441,211.631958 
	C478.248322,200.562103 459.229889,194.576920 447.258057,200.388107 
	C463.003479,201.070480 476.803192,204.897873 485.578827,218.868362 
	C485.641937,218.721512 485.726166,218.579651 485.762329,218.426437 
	C485.800079,218.266678 485.791473,218.096008 485.800354,217.377380 
M412.992401,295.348389 
	C414.736023,295.663513 416.284302,296.977631 418.354065,296.386292 
	C410.347290,291.063446 401.271606,287.729065 394.001404,281.442657 
	C398.715820,287.861603 404.669250,292.599945 412.992401,295.348389 
M445.675262,296.331787 
	C449.752686,296.979797 451.839752,293.969116 454.375824,291.755371 
	C451.034424,292.640564 447.736847,293.602692 444.633087,294.996399 
	C442.743652,295.844818 444.786346,295.840637 445.675262,296.331787 
M413.092957,303.424683 
	C414.998840,303.814240 416.796448,305.065002 419.744415,304.091370 
	C415.063507,303.295776 411.476288,301.722107 407.502686,301.228882 
	C409.140839,301.872742 410.778992,302.516602 413.092957,303.424683 
z"/>
<path fill="#000000" opacity="1.000000" stroke="none" 
	d="
M356.694702,350.718750 
	C357.215729,349.088959 357.536102,347.785156 358.071747,346.576813 
	C359.068207,344.328949 360.473755,342.314423 363.327942,343.159882 
	C366.056641,343.968140 367.549438,346.173370 366.889801,348.927460 
	C364.575195,358.591217 360.977448,367.355194 350.261017,370.724823 
	C346.482483,371.912903 343.032532,371.898346 341.490540,367.801453 
	C339.942780,363.689301 342.466461,361.149780 346.208496,359.914795 
	C350.908356,358.363678 355.389465,356.693146 356.694702,350.718750 
z"/>
<path fill="#000000" opacity="1.000000" stroke="none" 
	d="
M388.299866,363.958618 
	C383.400818,360.075989 380.985779,354.988831 379.069916,349.657654 
	C378.195099,347.223419 378.137848,344.526855 380.892120,343.121490 
	C383.786469,341.644684 385.954773,343.029297 387.585022,345.550659 
	C388.934448,347.637787 390.277618,349.733398 391.730072,351.748444 
	C393.708466,354.493134 395.659821,356.770569 399.876068,355.775024 
	C403.285950,354.969940 405.719513,357.467621 406.086243,360.740479 
	C406.498169,364.416443 404.159241,366.790985 400.530548,367.018341 
	C396.353699,367.280060 392.323364,366.215393 388.299866,363.958618 
z"/>
</svg>